# Blender v2.93.6 OBJ File: ''
# www.blender.org
mtllib untitled.mtl
o Cube
v 1.121406 0.728822 -0.693241
v 0.735868 -0.647800 -0.971958
v 1.016373 0.526780 0.721208
v 0.847878 -0.797826 0.584625
v -0.362390 1.196127 -0.597394
v -0.855840 -0.500523 -1.269485
v -1.047666 0.783908 1.004120
v -1.019553 -0.881961 0.974058
v -1.128038 -1.048509 -0.274632
v -0.128383 -0.861045 -1.140069
v 0.958498 0.059613 -1.040944
v -1.077774 -0.108130 1.000970
v 1.002478 -0.080610 0.911428
v -1.062824 0.231484 -0.994376
v -0.167465 0.759039 1.162906
v 1.046763 0.934793 0.048980
v 0.009981 -1.035267 0.993533
v -1.069509 0.963330 0.093054
v 0.048089 1.140001 -0.776592
v 0.916397 -1.059057 -0.074566
v -0.052076 0.146027 -0.918389
v 0.989345 -0.105458 -0.069587
v -0.050175 -1.702218 0.007630
v -1.065360 -0.973155 0.350389
v -1.065703 0.337482 0.963700
v 0.925178 -0.439218 0.748026
v -0.959332 -0.134520 -1.131931
v -0.607566 0.771474 1.083513
v 1.008002 0.710776 0.353078
v 0.442396 -0.886588 0.826595
v -0.730478 1.061115 -0.265034
v 0.589903 0.911861 -0.759755
v -0.938146 -0.811582 -0.777461
v -1.048664 -0.495045 0.987514
v 1.009425 0.223085 0.816318
v -0.775917 0.704015 -0.783782
v 0.433109 0.668487 0.929250
v 1.088348 0.849136 -0.301123
v -0.469169 -0.925060 1.007903
v -1.058588 0.873619 0.548587
v -0.157150 1.168064 -0.686993
v -0.020097 -1.368742 0.500582
v -0.612243 -1.390560 -0.097710
v -1.045315 0.058945 -0.526117
v -1.079615 -0.080737 0.496592
v -1.108243 -0.542522 -0.144041
v -1.129050 0.421487 0.015054
v -0.127339 0.854085 0.672812
v -0.033953 1.022766 -0.308425
v 0.455481 0.923685 0.107355
v -0.578361 0.956230 0.137886
v -0.382216 1.041940 -0.286730
v 0.499559 0.899909 -0.353840
v 0.445613 0.796798 0.497976
v -1.066664 0.381387 0.487942
v -1.072487 -0.526946 0.423490
v -0.991731 -0.376319 -0.651789
v -0.455719 -1.111629 0.464205
v -0.949686 0.595708 -0.346751
v -0.592963 0.863852 0.610699
vt 0.812500 0.687500
vt 0.875000 0.687500
vt 0.875000 0.750000
vt 0.812500 0.750000
vt 0.562500 0.187500
vt 0.625000 0.187500
vt 0.625000 0.250000
vt 0.562500 0.250000
vt 0.250000 0.687500
vt 0.312500 0.750000
vt 0.250000 0.750000
vt 0.562500 0.750000
vt 0.625000 0.687500
vt 0.625000 0.750000
vt 0.500000 0.375000
vt 0.625000 0.375000
vt 0.625000 0.437500
vt 0.625000 0.500000
vt 0.500000 0.500000
vt 0.375000 0.375000
vt 0.375000 0.500000
vt 0.375000 0.250000
vt 0.437500 0.250000
vt 0.500000 0.250000
vt 0.625000 0.312500
vt 0.375000 0.625000
vt 0.500000 0.625000
vt 0.500000 0.750000
vt 0.437500 0.750000
vt 0.375000 0.750000
vt 0.625000 0.562500
vt 0.625000 0.625000
vt 0.187500 0.687500
vt 0.187500 0.750000
vt 0.125000 0.562500
vt 0.187500 0.625000
vt 0.125000 0.625000
vt 0.250000 0.500000
vt 0.250000 0.625000
vt 0.437500 0.187500
vt 0.500000 0.187500
vt 0.562500 0.062500
vt 0.625000 0.062500
vt 0.625000 0.125000
vt 0.562500 0.125000
vt 0.687500 0.687500
vt 0.750000 0.687500
vt 0.750000 0.750000
vt 0.687500 0.750000
vt 0.812500 0.562500
vt 0.875000 0.562500
vt 0.875000 0.625000
vt 0.812500 0.625000
vt 0.750000 0.500000
vt 0.812500 0.500000
vt 0.750000 0.562500
vt 0.875000 0.500000
vt 0.687500 0.562500
vt 0.687500 0.625000
vt 0.687500 0.500000
vt 0.437500 0.062500
vt 0.500000 0.062500
vt 0.437500 0.125000
vt 0.500000 0.000000
vt 0.562500 0.000000
vt 0.625000 0.000000
vt 0.375000 0.062500
vt 0.375000 0.125000
vt 0.375000 0.000000
vt 0.437500 0.000000
vt 0.375000 0.187500
vt 0.125000 0.500000
vt 0.125000 0.687500
vt 0.125000 0.750000
vt 0.625000 0.937500
vt 0.625000 1.000000
vt 0.562500 1.000000
vt 0.500000 1.000000
vt 0.437500 1.000000
vt 0.375000 1.000000
vt 0.375000 0.937500
vt 0.375000 0.875000
vt 0.375000 0.812500
vt 0.625000 0.812500
vt 0.625000 0.875000
vn -0.0060 0.9813 0.1924
vn -0.7396 0.5829 -0.3365
vn 0.4456 -0.7539 0.4828
vn 0.9986 -0.0355 -0.0405
vn 0.0418 0.2647 -0.9634
vn 0.0184 0.0855 -0.9962
vn 0.1838 0.2827 -0.9414
vn -0.2758 0.5343 -0.7990
vn 0.9875 -0.1462 0.0588
vn 0.9699 -0.1790 -0.1649
vn 0.9900 -0.1378 0.0298
vn -0.3461 -0.8364 0.4251
vn -0.3504 -0.7893 -0.5042
vn 0.3824 -0.7656 -0.5173
vn -0.9826 -0.1640 -0.0871
vn -0.9949 0.0535 0.0860
vn 0.2036 0.9488 0.2416
vn 0.0236 0.9696 0.2435
vn 0.1432 0.9387 0.3137
vn 0.1649 0.8793 0.4469
vn 0.0327 0.9909 -0.1302
vn 0.2134 0.9719 -0.0990
vn 0.3089 0.9302 0.1984
vn 0.2852 0.8923 0.3501
vn 0.1372 0.8803 0.4542
vn -0.9976 0.0197 -0.0665
vn 0.0779 0.9822 0.1707
vn -0.9996 0.0278 0.0049
vn -0.9995 0.0260 0.0165
vn -0.9966 -0.0044 0.0826
vn -0.9967 -0.0500 0.0636
vn -0.9987 -0.0460 0.0242
vn -0.9736 -0.1290 -0.1882
vn -0.9606 0.0404 -0.2751
vn -0.3042 -0.7836 -0.5417
vn -0.1792 -0.9560 0.2324
vn -0.4415 -0.8341 0.3305
vn -0.4810 -0.7186 0.5023
vn -0.0275 0.2652 -0.9638
vn 0.9995 -0.0311 0.0109
vn 0.4934 -0.7602 0.4226
vn -0.9281 0.3694 -0.0456
vn -0.8239 0.3039 -0.4785
vn -0.0057 0.9816 0.1907
vn -0.0042 0.9813 0.1925
vn 0.0983 -0.0616 0.9932
usemtl Material
s off
f 60/1/1 40/2/1 7/3/1 28/4/1
f 59/5/2 31/6/2 5/7/2 36/8/2
f 42/9/3 30/10/3 17/11/3
f 35/12/4 29/13/4 3/14/4
f 21/15/5 19/16/5 32/17/5 1/18/5 11/19/5
f 10/20/6 21/15/6 11/19/6 2/21/6
f 6/22/7 27/23/7 14/24/7 21/15/7 10/20/7
f 36/8/8 5/7/8 41/25/8
f 20/26/9 22/27/9 13/28/9 26/29/9 4/30/9
f 2/21/10 11/19/10 22/27/10 20/26/10
f 11/19/11 1/18/11 38/31/11 16/32/11 22/27/11
f 58/33/12 42/9/12 17/11/12 39/34/12
f 33/35/13 43/36/13 9/37/13
f 10/38/14 2/21/14 20/26/14 23/39/14
f 57/40/15 44/41/15 14/24/15 27/23/15
f 55/42/16 40/43/16 18/44/16 47/45/16
f 54/46/17 48/47/17 15/48/17 37/49/17
f 52/50/18 31/51/18 18/52/18 51/53/18
f 19/54/19 41/55/19 52/50/19 49/56/19
f 41/55/20 5/57/20 31/51/20 52/50/20
f 38/31/21 53/58/21 50/59/21 16/32/21
f 1/18/22 32/60/22 53/58/22 38/31/22
f 32/60/23 19/54/23 49/56/23 53/58/23
f 29/13/24 54/46/24 37/49/24 3/14/24
f 16/32/25 50/59/25 54/46/25 29/13/25
f 56/61/26 45/62/26 55/42/26 47/45/26 59/5/26 44/41/26 57/40/26 46/63/26
f 53/58/27 49/56/27 52/50/27 51/53/27 60/1/27 48/47/27 54/46/27 50/59/27
f 12/64/28 25/65/28 55/42/28 45/62/28
f 25/65/29 7/66/29 40/43/29 55/42/29
f 24/67/30 56/61/30 46/63/30 9/68/30
f 8/69/31 34/70/31 56/61/31 24/67/31
f 34/70/32 12/64/32 45/62/32 56/61/32
f 33/71/33 57/40/33 27/23/33 6/22/33
f 9/68/34 46/63/34 57/40/34 33/71/34
f 6/72/35 10/38/35 23/39/35 43/36/35 33/35/35
f 24/73/36 58/33/36 39/34/36 8/74/36
f 9/37/37 43/36/37 58/33/37 24/73/37
f 43/36/38 23/39/38 42/9/38 58/33/38
f 14/24/39 36/8/39 41/25/39 19/16/39 21/15/39
f 22/27/40 16/32/40 29/13/40 35/12/40 13/28/40
f 23/39/41 20/26/41 4/30/41 30/10/41 42/9/41
f 44/41/42 59/5/42 36/8/42 14/24/42
f 47/45/43 18/44/43 31/6/43 59/5/43
f 48/47/44 60/1/44 28/4/44 15/48/44
f 51/53/45 18/52/45 40/2/45 60/1/45
f 28/75/46 7/76/46 25/77/46 12/78/46 34/79/46 8/80/46 39/81/46 17/82/46 30/83/46 4/30/46 26/29/46 13/28/46 35/12/46 3/14/46 37/84/46 15/85/46
